<svg width="17" height="17" viewBox="0 0 17 17" fill="none" xmlns="http://www.w3.org/2000/svg">
    <g clip-path="url(#clip0_15111_49)">
    <path d="M4.01758 16.5715H0.780587V5.93569H4.11007V16.5715H4.01758ZM2.35284 4.45592C1.3355 4.45592 0.410645 3.62356 0.410645 2.51373C0.410645 1.49639 1.24301 0.571533 2.35284 0.571533C3.37018 0.571533 4.29503 1.4039 4.29503 2.51373C4.29503 3.62356 3.46267 4.45592 2.35284 4.45592ZM16.4106 16.5715H13.0812V11.3923C13.0812 10.19 13.0812 8.61777 11.4164 8.61777C9.65921 8.61777 9.47423 9.91257 9.47423 11.2999V16.5715H6.14475V5.93569H9.28926V7.41547C9.75168 6.58309 10.769 5.75072 12.4338 5.75072C15.7633 5.75072 16.4106 7.97037 16.4106 10.8374V16.5715Z" fill="white"/>
    </g>
    <defs>
    <clipPath id="clip0_15111_49">
    <rect width="16" height="16" fill="white" transform="translate(0.410645 0.571533)"/>
    </clipPath>
    </defs>
</svg>
