<svg width="60" height="25" viewBox="0 0 60 25" fill="none" xmlns="http://www.w3.org/2000/svg">
<path d="M47.4225 23.5928C47.4225 24.3663 46.8284 25.0003 46.1037 25.0003H36.9087C36.184 25.0003 35.5898 24.3663 35.5898 23.5928V13.7796C35.5898 13.0062 36.184 12.3721 36.9087 12.3721H46.1037C46.8284 12.3721 47.4225 13.0062 47.4225 13.7796V23.5928Z" fill="#07BFDD"/>
<path d="M59.405 11.2208C59.405 11.9942 58.8108 12.6283 58.0861 12.6283H48.8911C48.1664 12.6283 47.5723 11.9942 47.5723 11.2208V1.40754C47.5723 0.634087 48.1664 0 48.8911 0H58.0861C58.8108 0 59.405 0.634087 59.405 1.40754V11.2208Z" fill="#007FFF"/>
<path d="M23.7975 23.5928C23.7975 24.3663 23.2033 25.0004 22.4787 25.0004H13.2836C12.5589 25.0004 11.9648 24.3663 11.9648 23.5928V13.7796C11.9648 13.0062 12.5589 12.3721 13.2836 12.3721H22.4787C23.2033 12.3721 23.7975 13.0062 23.7975 13.7796V23.5928Z" fill="#1DA5F8"/>
<path d="M11.8327 11.2218C11.8327 11.9952 11.2385 12.6293 10.5138 12.6293H1.31885C0.594136 12.6293 0 11.9975 0 11.2218V1.40851C0 0.635063 0.594136 0.000976562 1.31885 0.000976562H10.5138C11.2385 0.000976562 11.8327 0.635063 11.8327 1.40851V11.2218Z" fill="#8CC936"/>
</svg>
